<svg xmlns="http://www.w3.org/2000/svg" style="display:none">
<!--
  Shipwright Icon Library
  All icons: viewBox="0 0 24 24", stroke-based, currentColor
  Usage: <svg><use href="icons.svg#icon-name"/></svg>
-->

<!-- ═══════════════════════════════════════════════
     PIPELINE STAGE ICONS
     ═══════════════════════════════════════════════ -->

<!-- icon-intake: Inbox tray with incoming arrow -->
<symbol id="icon-intake" viewBox="0 0 24 24" fill="none" stroke="currentColor" stroke-width="1.5" stroke-linecap="round" stroke-linejoin="round">
  <polyline points="22 12 16 12 14 15 10 15 8 12 2 12"/>
  <path d="M5.45 5.11L2 12v6a2 2 0 002 2h16a2 2 0 002-2v-6l-3.45-6.89A2 2 0 0016.76 4H7.24a2 2 0 00-1.79 1.11z"/>
  <line x1="12" y1="1" x2="12" y2="8"/>
  <polyline points="9 5 12 8 15 5"/>
</symbol>

<!-- icon-plan: Map with fold lines and pin marker -->
<symbol id="icon-plan" viewBox="0 0 24 24" fill="none" stroke="currentColor" stroke-width="1.5" stroke-linecap="round" stroke-linejoin="round">
  <polygon points="1 6 1 22 8 18 16 22 23 18 23 2 16 6 8 2 1 6"/>
  <line x1="8" y1="2" x2="8" y2="18"/>
  <line x1="16" y1="6" x2="16" y2="22"/>
  <circle cx="12" cy="10" r="2"/>
  <line x1="12" y1="8" x2="12" y2="6"/>
</symbol>

<!-- icon-design: Compass / drafting tool -->
<symbol id="icon-design" viewBox="0 0 24 24" fill="none" stroke="currentColor" stroke-width="1.5" stroke-linecap="round" stroke-linejoin="round">
  <circle cx="12" cy="5" r="2"/>
  <line x1="12" y1="7" x2="12" y2="14"/>
  <line x1="12" y1="14" x2="6" y2="22"/>
  <line x1="12" y1="14" x2="18" y2="22"/>
  <path d="M8.5 18h7"/>
  <line x1="5" y1="3" x2="7" y2="3"/>
  <line x1="17" y1="3" x2="19" y2="3"/>
</symbol>

<!-- icon-build: Hammer -->
<symbol id="icon-build" viewBox="0 0 24 24" fill="none" stroke="currentColor" stroke-width="1.5" stroke-linecap="round" stroke-linejoin="round">
  <path d="M15 12l-8.5 8.5a2.12 2.12 0 01-3-3L12 9"/>
  <path d="M17.64 4.36a3.5 3.5 0 00-4.95 0L11 6l5 5 1.64-1.64a3.5 3.5 0 000-4.95z"/>
  <line x1="18" y1="10" x2="21" y2="7"/>
</symbol>

<!-- icon-test: Laboratory flask / beaker -->
<symbol id="icon-test" viewBox="0 0 24 24" fill="none" stroke="currentColor" stroke-width="1.5" stroke-linecap="round" stroke-linejoin="round">
  <path d="M9 3h6"/>
  <path d="M10 3v7.4a2 2 0 01-.5 1.3L4 18.6a2 2 0 001.5 3.4h13a2 2 0 001.5-3.4l-5.5-6.9A2 2 0 0114 10.4V3"/>
  <path d="M7.5 16h9"/>
  <circle cx="10" cy="19" r="0.5"/>
  <circle cx="14" cy="18" r="0.5"/>
</symbol>

<!-- icon-review: Magnifying glass with eye -->
<symbol id="icon-review" viewBox="0 0 24 24" fill="none" stroke="currentColor" stroke-width="1.5" stroke-linecap="round" stroke-linejoin="round">
  <circle cx="10" cy="10" r="7"/>
  <line x1="15" y1="15" x2="21" y2="21"/>
  <path d="M7 10c0-1.5 1.3-3 3-3s3 1.5 3 3-1.3 3-3 3-3-1.5-3-3z"/>
  <circle cx="10" cy="10" r="1"/>
</symbol>

<!-- icon-quality: Shield with checkmark -->
<symbol id="icon-quality" viewBox="0 0 24 24" fill="none" stroke="currentColor" stroke-width="1.5" stroke-linecap="round" stroke-linejoin="round">
  <path d="M12 2L3 7v5c0 5.55 3.84 10.74 9 12 5.16-1.26 9-6.45 9-12V7l-9-5z"/>
  <polyline points="9 12 11 14 15 10"/>
</symbol>

<!-- icon-pr: Git pull-request (branch merging) -->
<symbol id="icon-pr" viewBox="0 0 24 24" fill="none" stroke="currentColor" stroke-width="1.5" stroke-linecap="round" stroke-linejoin="round">
  <circle cx="18" cy="18" r="3"/>
  <circle cx="6" cy="6" r="3"/>
  <path d="M13 6h3a2 2 0 012 2v7"/>
  <line x1="6" y1="9" x2="6" y2="21"/>
</symbol>

<!-- icon-merge: Git merge (branches joining) -->
<symbol id="icon-merge" viewBox="0 0 24 24" fill="none" stroke="currentColor" stroke-width="1.5" stroke-linecap="round" stroke-linejoin="round">
  <circle cx="18" cy="6" r="3"/>
  <circle cx="6" cy="18" r="3"/>
  <circle cx="6" cy="6" r="3"/>
  <path d="M6 9v0a6 6 0 006 6h3"/>
  <line x1="6" y1="9" x2="6" y2="15"/>
</symbol>

<!-- icon-deploy: Rocket ship -->
<symbol id="icon-deploy" viewBox="0 0 24 24" fill="none" stroke="currentColor" stroke-width="1.5" stroke-linecap="round" stroke-linejoin="round">
  <path d="M4.5 16.5c-1.5 1.26-2 5-2 5s3.74-.5 5-2c.71-.84.7-2.13-.09-2.91a2.18 2.18 0 00-2.91-.09z"/>
  <path d="M12 15l-3-3a22 22 0 012-3.95A12.88 12.88 0 0122 2c0 2.72-.78 7.5-6 11.95A22 22 0 0112 15z"/>
  <path d="M9 12H4s.55-3.03 2-4.5"/>
  <path d="M12 15v5s3.03-.55 4.5-2"/>
</symbol>

<!-- icon-validate: Finish flag -->
<symbol id="icon-validate" viewBox="0 0 24 24" fill="none" stroke="currentColor" stroke-width="1.5" stroke-linecap="round" stroke-linejoin="round">
  <path d="M4 15s1-1 4-1 5 2 8 2 4-1 4-1V3s-1 1-4 1-5-2-8-2-4 1-4 1z"/>
  <line x1="4" y1="22" x2="4" y2="15"/>
</symbol>

<!-- icon-monitor: Radar / signal pulse -->
<symbol id="icon-monitor" viewBox="0 0 24 24" fill="none" stroke="currentColor" stroke-width="1.5" stroke-linecap="round" stroke-linejoin="round">
  <circle cx="12" cy="12" r="10"/>
  <circle cx="12" cy="12" r="1.5"/>
  <line x1="12" y1="12" x2="17" y2="7"/>
  <path d="M16.24 7.76a6 6 0 010 8.49"/>
  <path d="M19.07 4.93a10 10 0 010 14.14"/>
</symbol>


<!-- ═══════════════════════════════════════════════
     FEATURE ICONS
     ═══════════════════════════════════════════════ -->

<!-- icon-daemon: Watchful eye (surveillance/monitoring) -->
<symbol id="icon-daemon" viewBox="0 0 24 24" fill="none" stroke="currentColor" stroke-width="1.5" stroke-linecap="round" stroke-linejoin="round">
  <path d="M1 12s4-8 11-8 11 8 11 8-4 8-11 8S1 12 1 12z"/>
  <circle cx="12" cy="12" r="3"/>
  <circle cx="12" cy="12" r="1"/>
</symbol>

<!-- icon-fleet: Multiple ships in formation -->
<symbol id="icon-fleet" viewBox="0 0 24 24" fill="none" stroke="currentColor" stroke-width="1.5" stroke-linecap="round" stroke-linejoin="round">
  <!-- Center ship (larger, forward) -->
  <line x1="12" y1="2" x2="12" y2="12"/>
  <path d="M12 4l5 4H12"/>
  <path d="M7 13l5 2 5-2"/>
  <!-- Left ship (smaller) -->
  <line x1="5" y1="8" x2="5" y2="14"/>
  <path d="M5 9l3 2H5"/>
  <path d="M3 15l2 1 2-1"/>
  <!-- Right ship (smaller) -->
  <line x1="19" y1="8" x2="19" y2="14"/>
  <path d="M19 9l3 2h-3"/>
  <path d="M17 15l2 1 2-1"/>
  <!-- Waves -->
  <path d="M1 19c2-1 4-1 6 0s4 1 6 0 4-1 6 0"/>
  <path d="M1 22c2-1 4-1 6 0s4 1 6 0 4-1 6 0"/>
</symbol>

<!-- icon-auto-scale: Ascending bar chart with up arrow -->
<symbol id="icon-auto-scale" viewBox="0 0 24 24" fill="none" stroke="currentColor" stroke-width="1.5" stroke-linecap="round" stroke-linejoin="round">
  <line x1="3" y1="21" x2="3" y2="14"/>
  <line x1="7" y1="21" x2="7" y2="11"/>
  <line x1="11" y1="21" x2="11" y2="8"/>
  <line x1="15" y1="21" x2="15" y2="5"/>
  <polyline points="18 9 21 3 21 7"/>
  <line x1="21" y1="3" x2="17" y2="3"/>
</symbol>

<!-- icon-dora-metrics: Analytics dashboard/chart -->
<symbol id="icon-dora-metrics" viewBox="0 0 24 24" fill="none" stroke="currentColor" stroke-width="1.5" stroke-linecap="round" stroke-linejoin="round">
  <rect x="2" y="3" width="20" height="18" rx="2"/>
  <line x1="2" y1="8" x2="22" y2="8"/>
  <polyline points="6 16 10 12 14 14 18 10"/>
  <circle cx="6" cy="16" r="1"/>
  <circle cx="10" cy="12" r="1"/>
  <circle cx="14" cy="14" r="1"/>
  <circle cx="18" cy="10" r="1"/>
</symbol>

<!-- icon-compound-quality: Circular refresh arrows with checkmark -->
<symbol id="icon-compound-quality" viewBox="0 0 24 24" fill="none" stroke="currentColor" stroke-width="1.5" stroke-linecap="round" stroke-linejoin="round">
  <path d="M21.5 2v6h-6"/>
  <path d="M2.5 22v-6h6"/>
  <path d="M2.5 16A10 10 0 0121.5 8"/>
  <path d="M21.5 8A10 10 0 012.5 16"/>
  <polyline points="10 12 11.5 13.5 14.5 10.5"/>
</symbol>

<!-- icon-worktree: Tree branch splitting -->
<symbol id="icon-worktree" viewBox="0 0 24 24" fill="none" stroke="currentColor" stroke-width="1.5" stroke-linecap="round" stroke-linejoin="round">
  <circle cx="12" cy="21" r="2"/>
  <circle cx="5" cy="4" r="2"/>
  <circle cx="19" cy="4" r="2"/>
  <circle cx="12" cy="12" r="2"/>
  <path d="M12 19v-5"/>
  <path d="M12 10V8"/>
  <path d="M7 5.5L10.5 10.5"/>
  <path d="M17 5.5L13.5 10.5"/>
</symbol>


<!-- ═══════════════════════════════════════════════
     VOYAGE / HOW-IT-WORKS ICONS
     ═══════════════════════════════════════════════ -->

<!-- icon-chart-course: Nautical chart/map with compass overlay -->
<symbol id="icon-chart-course" viewBox="0 0 24 24" fill="none" stroke="currentColor" stroke-width="1.5" stroke-linecap="round" stroke-linejoin="round">
  <rect x="2" y="3" width="20" height="18" rx="2"/>
  <path d="M2 8h20"/>
  <path d="M6 14l4-3 4 2 4-3"/>
  <circle cx="17" cy="16" r="3"/>
  <line x1="17" y1="14" x2="17" y2="13"/>
  <line x1="17" y1="19" x2="17" y2="18"/>
  <line x1="15" y1="16" x2="14" y2="16"/>
  <line x1="20" y1="16" x2="19" y2="16"/>
</symbol>

<!-- icon-assemble-crew: Group of people/agents connecting -->
<symbol id="icon-assemble-crew" viewBox="0 0 24 24" fill="none" stroke="currentColor" stroke-width="1.5" stroke-linecap="round" stroke-linejoin="round">
  <circle cx="12" cy="5" r="2.5"/>
  <circle cx="5" cy="19" r="2.5"/>
  <circle cx="19" cy="19" r="2.5"/>
  <line x1="12" y1="7.5" x2="5" y2="16.5"/>
  <line x1="12" y1="7.5" x2="19" y2="16.5"/>
  <line x1="7.5" y1="19" x2="16.5" y2="19"/>
</symbol>

<!-- icon-set-sail: Sailboat with wind -->
<symbol id="icon-set-sail" viewBox="0 0 24 24" fill="none" stroke="currentColor" stroke-width="1.5" stroke-linecap="round" stroke-linejoin="round">
  <path d="M12 3v14"/>
  <path d="M12 3c0 0 7 4 7 11H12"/>
  <path d="M12 5c0 0-5 3.5-5 9h5"/>
  <path d="M3 18l3 1 3-1 3 1 3-1 3 1 3-1"/>
  <path d="M2 21l3 1 3-1 3 1 3-1 3 1 3-1 2 0.67"/>
</symbol>

<!-- icon-navigate: Compass rose (detailed, decorative) -->
<symbol id="icon-navigate" viewBox="0 0 24 24" fill="none" stroke="currentColor" stroke-width="1.5" stroke-linecap="round" stroke-linejoin="round">
  <circle cx="12" cy="12" r="10"/>
  <!-- North point -->
  <polygon points="12 3, 13.5 10, 12 8.5, 10.5 10"/>
  <!-- East point -->
  <polygon points="21 12, 14 10.5, 15.5 12, 14 13.5"/>
  <!-- South point -->
  <polygon points="12 21, 10.5 14, 12 15.5, 13.5 14"/>
  <!-- West point -->
  <polygon points="3 12, 10 13.5, 8.5 12, 10 10.5"/>
  <circle cx="12" cy="12" r="1.5"/>
  <!-- Cardinal tick marks -->
  <line x1="12" y1="2" x2="12" y2="3" opacity="0.5"/>
  <line x1="22" y1="12" x2="21" y2="12" opacity="0.5"/>
  <line x1="12" y1="22" x2="12" y2="21" opacity="0.5"/>
  <line x1="2" y1="12" x2="3" y2="12" opacity="0.5"/>
</symbol>

<!-- icon-make-port: Anchor -->
<symbol id="icon-make-port" viewBox="0 0 24 24" fill="none" stroke="currentColor" stroke-width="1.5" stroke-linecap="round" stroke-linejoin="round">
  <circle cx="12" cy="5" r="3"/>
  <line x1="12" y1="8" x2="12" y2="22"/>
  <path d="M5 12H2a10 10 0 0020 0h-3"/>
  <line x1="8" y1="11" x2="16" y2="11"/>
</symbol>

<!-- icon-watch-horizon: Telescope / spyglass -->
<symbol id="icon-watch-horizon" viewBox="0 0 24 24" fill="none" stroke="currentColor" stroke-width="1.5" stroke-linecap="round" stroke-linejoin="round">
  <!-- Telescope tube -->
  <path d="M22 4L11 15"/>
  <path d="M20.5 2.5l2 2"/>
  <path d="M19.5 5.5l-9.5 9.5"/>
  <!-- Lens hood -->
  <circle cx="21.5" cy="3.5" r="2"/>
  <!-- Tripod -->
  <line x1="11" y1="15" x2="7" y2="21"/>
  <line x1="11" y1="15" x2="15" y2="21"/>
  <line x1="11" y1="15" x2="11" y2="21"/>
  <!-- Ground -->
  <line x1="5" y1="21" x2="17" y2="21"/>
</symbol>


<!-- ═══════════════════════════════════════════════
     NAVIGATION & UI ICONS
     ═══════════════════════════════════════════════ -->

<!-- icon-shipwright-mark: Simplified ship hull with mast (for nav logo, small) -->
<symbol id="icon-shipwright-mark" viewBox="0 0 24 24" fill="none" stroke="currentColor" stroke-width="1.5" stroke-linecap="round" stroke-linejoin="round">
  <line x1="12" y1="2" x2="12" y2="18"/>
  <path d="M12 5l7 5-2 8H7L5 10z"/>
  <path d="M12 5l-5 5"/>
  <path d="M12 5l5 5"/>
  <circle cx="12" cy="3" r="1.5"/>
  <path d="M3 20c2.5-1 5-1 7.5 0s5 1 7.5 0l3 0"/>
</symbol>

<!-- icon-github: GitHub octocat mark -->
<symbol id="icon-github" viewBox="0 0 24 24" fill="none" stroke="currentColor" stroke-width="1.5" stroke-linecap="round" stroke-linejoin="round">
  <path d="M9 19c-5 1.5-5-2.5-7-3m14 6v-3.87a3.37 3.37 0 00-.94-2.61c3.14-.35 6.44-1.54 6.44-7A5.44 5.44 0 0020 4.77 5.07 5.07 0 0019.91 1S18.73.65 16 2.48a13.38 13.38 0 00-7 0C6.27.65 5.09 1 5.09 1A5.07 5.07 0 005 4.77a5.44 5.44 0 00-1.5 3.78c0 5.42 3.3 6.61 6.44 7A3.37 3.37 0 009 18.13V22"/>
</symbol>

<!-- icon-arrow-right: Right arrow -->
<symbol id="icon-arrow-right" viewBox="0 0 24 24" fill="none" stroke="currentColor" stroke-width="1.5" stroke-linecap="round" stroke-linejoin="round">
  <line x1="5" y1="12" x2="19" y2="12"/>
  <polyline points="12 5 19 12 12 19"/>
</symbol>

<!-- icon-arrow-up-right: Diagonal arrow (external link) -->
<symbol id="icon-arrow-up-right" viewBox="0 0 24 24" fill="none" stroke="currentColor" stroke-width="1.5" stroke-linecap="round" stroke-linejoin="round">
  <line x1="7" y1="17" x2="17" y2="7"/>
  <polyline points="7 7 17 7 17 17"/>
</symbol>

<!-- icon-copy: Copy/clipboard -->
<symbol id="icon-copy" viewBox="0 0 24 24" fill="none" stroke="currentColor" stroke-width="1.5" stroke-linecap="round" stroke-linejoin="round">
  <rect x="9" y="9" width="13" height="13" rx="2"/>
  <path d="M5 15H4a2 2 0 01-2-2V4a2 2 0 012-2h9a2 2 0 012 2v1"/>
</symbol>

<!-- icon-play: Play triangle -->
<symbol id="icon-play" viewBox="0 0 24 24" fill="none" stroke="currentColor" stroke-width="1.5" stroke-linecap="round" stroke-linejoin="round">
  <polygon points="5 3 19 12 5 21 5 3"/>
</symbol>

<!-- icon-scroll-down: Chevron down (animated scroll indicator) -->
<symbol id="icon-scroll-down" viewBox="0 0 24 24" fill="none" stroke="currentColor" stroke-width="1.5" stroke-linecap="round" stroke-linejoin="round">
  <polyline points="6 9 12 15 18 9"/>
</symbol>

<!-- icon-check: Checkmark -->
<symbol id="icon-check" viewBox="0 0 24 24" fill="none" stroke="currentColor" stroke-width="1.5" stroke-linecap="round" stroke-linejoin="round">
  <polyline points="4 12 9 17 20 6"/>
</symbol>

<!-- icon-star: Star -->
<symbol id="icon-star" viewBox="0 0 24 24" fill="none" stroke="currentColor" stroke-width="1.5" stroke-linecap="round" stroke-linejoin="round">
  <polygon points="12 2 15.09 8.26 22 9.27 17 14.14 18.18 21.02 12 17.77 5.82 21.02 7 14.14 2 9.27 8.91 8.26 12 2"/>
</symbol>

<!-- icon-terminal: Terminal prompt bracket -->
<symbol id="icon-terminal" viewBox="0 0 24 24" fill="none" stroke="currentColor" stroke-width="1.5" stroke-linecap="round" stroke-linejoin="round">
  <polyline points="4 17 10 11 4 5"/>
  <line x1="12" y1="19" x2="20" y2="19"/>
</symbol>


<!-- ═══════════════════════════════════════════════
     TEMPLATE ICONS
     ═══════════════════════════════════════════════ -->

<!-- icon-feature-dev: Code brackets with gear -->
<symbol id="icon-feature-dev" viewBox="0 0 24 24" fill="none" stroke="currentColor" stroke-width="1.5" stroke-linecap="round" stroke-linejoin="round">
  <polyline points="7 8 3 12 7 16"/>
  <polyline points="17 8 21 12 17 16"/>
  <circle cx="12" cy="12" r="2.5"/>
  <path d="M12 9.5V7"/>
  <path d="M12 17v-2.5"/>
  <path d="M9.5 12H8"/>
  <path d="M16 12h-1.5"/>
</symbol>

<!-- icon-code-review: Magnifier over code -->
<symbol id="icon-code-review" viewBox="0 0 24 24" fill="none" stroke="currentColor" stroke-width="1.5" stroke-linecap="round" stroke-linejoin="round">
  <circle cx="10" cy="10" r="7"/>
  <line x1="15" y1="15" x2="21" y2="21"/>
  <polyline points="7 9 9 11 13 7"/>
</symbol>

<!-- icon-security-audit: Shield with lock -->
<symbol id="icon-security-audit" viewBox="0 0 24 24" fill="none" stroke="currentColor" stroke-width="1.5" stroke-linecap="round" stroke-linejoin="round">
  <path d="M12 2L3 7v5c0 5.55 3.84 10.74 9 12 5.16-1.26 9-6.45 9-12V7l-9-5z"/>
  <rect x="9" y="11" width="6" height="5" rx="1"/>
  <path d="M10 11V9a2 2 0 014 0v2"/>
</symbol>

<!-- icon-bug-fix: Bug with wrench -->
<symbol id="icon-bug-fix" viewBox="0 0 24 24" fill="none" stroke="currentColor" stroke-width="1.5" stroke-linecap="round" stroke-linejoin="round">
  <rect x="6" y="9" width="12" height="10" rx="5"/>
  <path d="M9 9V7a3 3 0 016 0v2"/>
  <line x1="12" y1="12" x2="12" y2="16"/>
  <line x1="2" y1="12" x2="6" y2="12"/>
  <line x1="18" y1="12" x2="22" y2="12"/>
  <line x1="3" y1="19" x2="6" y2="17"/>
  <line x1="18" y1="17" x2="21" y2="19"/>
  <line x1="3" y1="7" x2="6" y2="9"/>
  <line x1="18" y1="9" x2="21" y2="7"/>
</symbol>

<!-- icon-testing: Test tube array -->
<symbol id="icon-testing" viewBox="0 0 24 24" fill="none" stroke="currentColor" stroke-width="1.5" stroke-linecap="round" stroke-linejoin="round">
  <line x1="4" y1="2" x2="4" y2="4"/>
  <path d="M4 4v12a3 3 0 006 0V4"/>
  <line x1="10" y1="2" x2="10" y2="4"/>
  <line x1="2" y1="2" x2="6" y2="2"/>
  <line x1="8" y1="2" x2="12" y2="2"/>
  <path d="M4 12h6"/>
  <line x1="15" y1="2" x2="15" y2="4"/>
  <path d="M15 4v12a3 3 0 006 0V4"/>
  <line x1="21" y1="2" x2="21" y2="4"/>
  <line x1="13" y1="2" x2="17" y2="2"/>
  <line x1="19" y1="2" x2="23" y2="2"/>
  <path d="M15 10h6"/>
</symbol>

<!-- icon-migration: Database with arrow -->
<symbol id="icon-migration" viewBox="0 0 24 24" fill="none" stroke="currentColor" stroke-width="1.5" stroke-linecap="round" stroke-linejoin="round">
  <ellipse cx="9" cy="5" rx="7" ry="3"/>
  <path d="M2 5v6c0 1.66 3.13 3 7 3"/>
  <path d="M16 5v6c0 1.66-3.13 3-7 3"/>
  <path d="M2 11v6c0 1.66 3.13 3 7 3"/>
  <path d="M16 11v6c0 1.66-3.13 3-7 3"/>
  <line x1="17" y1="15" x2="22" y2="15"/>
  <polyline points="20 12 22 15 20 18"/>
</symbol>

<!-- icon-architecture: Building columns / blueprint -->
<symbol id="icon-architecture" viewBox="0 0 24 24" fill="none" stroke="currentColor" stroke-width="1.5" stroke-linecap="round" stroke-linejoin="round">
  <path d="M3 21h18"/>
  <path d="M5 21V7l7-5 7 5v14"/>
  <line x1="9" y1="21" x2="9" y2="10"/>
  <line x1="15" y1="21" x2="15" y2="10"/>
  <path d="M5 7h14"/>
  <line x1="12" y1="10" x2="12" y2="21"/>
</symbol>

<!-- icon-devops: Gear with infinity loop -->
<symbol id="icon-devops" viewBox="0 0 24 24" fill="none" stroke="currentColor" stroke-width="1.5" stroke-linecap="round" stroke-linejoin="round">
  <path d="M12 1v2"/>
  <path d="M12 21v2"/>
  <path d="M4.22 4.22l1.42 1.42"/>
  <path d="M18.36 18.36l1.42 1.42"/>
  <path d="M1 12h2"/>
  <path d="M21 12h2"/>
  <path d="M4.22 19.78l1.42-1.42"/>
  <path d="M18.36 5.64l1.42-1.42"/>
  <circle cx="12" cy="12" r="5"/>
  <path d="M8 12a2 2 0 104 0 2 2 0 104 0 2 2 0 10-4 0 2 2 0 10-4 0z"/>
</symbol>

</svg>
